
<svg version="1.1" id="Layer_1" xmlns="http://www.w3.org/2000/svg" xmlns:xlink="http://www.w3.org/1999/xlink" x="0px" y="0px"
	viewBox="0 0 425.52 551.047" style="enable-background:new 0 0 425.52 551.047;" xml:space="preserve">

	

	<defs>
		<style type="text/css">
		.st0{fill:url(#linear);stroke:rgba(46, 25, 23,0.5);stroke-width:2;}
		.st1{fill:url(#linear1);stroke:rgba(46, 25, 23,0.5);stroke-width:2;}
		</style>
		<linearGradient id="linear">
		 	<stop offset="0" stop-color="#cb9b51" />
			<stop offset="22%" stop-color="#cb9b51" />
			<stop offset="45%" stop-color="#f6e27a" />
			<!-- <stop offset="50%" stop-color="#f6f2c0" /> -->
			<stop offset="55%" stop-color="#f6e27a" />
			<stop offset="75%" stop-color="#cb9b51" />
			<stop offset="100%" stop-color="#cb9b51" />	
		</linearGradient>
		<linearGradient id="linear1">
		 	
			<stop offset="0%" stop-color="#cb9b51" />
			<stop offset="50%" stop-color="#f6e27a" />
			
			<stop offset="100%" stop-color="#cb9b51" />
				
		</linearGradient>
	</defs>

<path class="st0" d="M131.63,7.614c67.967,0,135.824,0,203.934,0c-0.609,1.002-1.124,1.896-1.682,2.763
	c-9.35,14.512-18.705,29.021-28.059,43.531c-5.968,9.256-11.954,18.501-17.877,27.786c-0.633,0.993-1.379,1.083-2.377,1.082
	c-18.665-0.018-37.329-0.013-55.994-0.013c-18.188,0-36.375,0-54.563,0c-0.653,0-1.306,0-2.077,0
	c-24.378,39.753-48.756,79.506-73.183,119.338c18.38,26.738,36.737,53.441,55.229,80.341c-30.499,0-60.701,0-91.128,0
	c-18.385-26.646-36.871-53.439-55.43-80.337C49.464,137.319,90.513,72.52,131.63,7.614z"/>
<path class="st0" d="M291.736,489.54c-67.974,0-135.831,0-203.908,0c0.531-0.896,0.974-1.7,1.47-2.47
	c5.515-8.557,11.042-17.106,16.557-25.663c8.642-13.41,17.278-26.823,25.916-40.236c1.257-1.952,2.527-3.896,3.758-5.865
	c0.42-0.672,0.917-1.05,1.743-0.925c0.35,0.053,0.714,0.009,1.072,0.009c36.614,0,73.228,0,109.841,0c0.713,0,1.425,0,2.247,0
	c24.382-39.76,48.761-79.514,73.182-119.338c-18.383-26.742-36.74-53.444-55.232-80.345c30.508,0,60.712,0,91.128,0
	c18.392,26.656,36.879,53.45,55.433,80.342C373.899,359.84,332.849,424.64,291.736,489.54z"/>
<path class="st1" d="M175.64,507.084c4.418,0,8.74,0,13.238,0c-3.222,7.987-6.389,15.835-9.614,23.831c2.575,0,4.877,0,7.226,0
	c3.219-7.954,6.426-15.875,9.652-23.845c4.384,0,8.72,0,13.216,0c-0.255,0.729-0.46,1.397-0.72,2.044
	c-3.324,8.27-6.668,16.531-9.978,24.807c-1.082,2.706-3.353,4.245-5.561,5.852c-0.249,0.181-0.68,0.155-1.026,0.155
	c-5.305,0.008-10.611,0.005-15.916-0.001c-0.171,0-0.343-0.05-0.649-0.099c0.296-0.916,0.58-1.796,0.943-2.92
	c-2.063,0.499-3.925,0.951-5.789,1.398c-1.846,0.443-3.685,0.924-5.544,1.304c-0.98,0.2-1.996,0.303-2.996,0.309
	c-5.067,0.03-10.134,0.017-15.201,0.012c-1.704-0.001-1.722-0.026-2.313-1.595c-0.586-1.555-0.642-3.038,0.029-4.65
	c2.352-5.648,4.588-11.344,6.993-17.333c-0.515-0.308-1.127-0.673-1.907-1.139c2.955-2.807,5.327-5.64,8.36-7.782
	c0.279-0.197,0.631-0.409,0.952-0.412c3.135-0.031,6.27-0.019,9.664-0.019c-3.263,8.088-6.431,15.939-9.648,23.913
	c2.387,0,4.568,0,6.938,0C169.193,523.003,172.419,515.036,175.64,507.084z"/>
<path class="st1" d="M205.05,539.933c-1.333-2.217-1.659-4.299-0.626-6.702c2.228-5.184,4.252-10.455,6.356-15.693
	c0.13-0.324,0.228-0.66,0.359-1.043c-0.448-0.427-0.871-0.831-1.388-1.324c0.198-0.313,0.351-0.704,0.628-0.965
	c2.291-2.164,4.607-4.302,6.911-6.453c0.646-0.603,1.388-0.779,2.273-0.777c10.789,0.025,21.578,0.015,32.367,0.019
	c1.507,0.001,1.852,0.247,2.3,1.663c0.441,1.395,0.48,2.76-0.096,4.172c-2.921,7.15-5.773,14.327-8.696,21.476
	c-1.043,2.549-3.268,4.007-5.431,5.482c-0.218,0.149-0.569,0.14-0.858,0.141C227.825,539.934,216.501,539.933,205.05,539.933z
	 M218.697,530.898c5.019,0,9.819,0,14.778,0c1.974-4.877,3.97-9.809,6.019-14.874c-5.094,0-9.955,0-14.792,0
	c-1.015,2.498-2.002,4.918-2.981,7.342C220.728,525.826,219.743,528.29,218.697,530.898z"/>
<path class="st1" d="M304.475,515.51c-6.774,4.483-13.373,8.852-20.135,13.328c3.384,6.166,6.765,12.328,10.235,18.651
	c-1.104,0.118-1.618-0.536-2.176-0.975c-3.643-2.867-7.257-5.771-10.888-8.654c-4.051-3.216-8.109-6.421-12.164-9.632
	c-0.412-0.326-0.818-0.66-1.46-1.179c5.716-3.427,11.283-6.764,16.809-10.077c-0.069-0.897-0.61-0.906-1.16-0.906
	c-4.468,0.001-8.936,0-13.512,0c-0.586,1.438-1.171,2.86-1.744,4.286c-1.774,4.41-3.565,8.814-5.298,13.24
	c-0.33,0.844-0.785,1.354-1.657,1.661c-3.921,1.38-7.815,2.836-11.731,4.233c-0.701,0.25-1.456,0.352-2.554,0.607
	c4.537-11.248,8.931-22.141,13.353-33.101c0.595,0,1.128,0,1.66,0c12.221,0,24.443,0.021,36.664-0.031
	c1.282-0.005,2.187,0.376,2.839,1.403C302.936,510.539,303.861,512.901,304.475,515.51z"/>
<path class="st1" d="M297.847,540.102c4.536-11.246,8.926-22.13,13.329-33.046c4.408,0,8.746,0,13.3,0
	c-1.86,4.647-3.682,9.197-5.498,13.733c0.652,0.728,1.116,0.114,1.554-0.172c3.19-2.079,6.364-4.182,9.539-6.283
	c3.375-2.233,6.736-4.487,10.13-6.689c0.519-0.337,1.187-0.62,1.788-0.626c5.241-0.048,10.483-0.028,15.878,0.256
	c-8.146,5.646-16.293,11.293-24.565,17.026c4.281,7.769,8.481,15.389,12.702,23.049c-1.177,0.502-1.639-0.35-2.179-0.775
	c-4.525-3.569-9.009-7.19-13.509-10.79c-4.309-3.447-8.623-6.888-13.094-10.459c-0.284,0.611-0.547,1.122-0.764,1.652
	c-0.902,2.198-1.826,4.387-2.665,6.609c-0.32,0.847-0.78,1.357-1.654,1.664c-3.92,1.378-7.812,2.834-11.725,4.232
	C299.714,539.734,298.961,539.839,297.847,540.102z"/>
<path class="st1" d="M92.487,515.953c-2.033,0-3.786,0-5.539,0c-0.056-0.104-0.112-0.207-0.169-0.311
	c0.699-0.659,1.392-1.323,2.097-1.975c2.184-2.018,4.358-4.047,6.574-6.03c0.361-0.323,0.91-0.611,1.376-0.616
	c4.108-0.048,8.217-0.028,12.494-0.028c-0.176,0.563-0.281,1-0.446,1.411c-3.344,8.325-6.751,16.626-10.007,24.985
	c-0.852,2.188-2.531,3.535-4.068,5.081c-1.159,1.167-2.517,1.515-4.181,1.502c-9.775-0.077-19.552-0.075-29.328,0.001
	c-1.542,0.012-2.417-0.604-3.158-1.799c-1.264-2.04-2.089-4.248-2.74-6.745c7.168-4.133,14.362-8.28,21.734-12.53
	c1.876,2.32,3.762,4.651,5.708,7.057c-2.432,1.83-5.294,2.752-7.584,4.555c0.038,0.145,0.077,0.29,0.115,0.435
	c1.805,0.011,3.609,0.026,5.414,0.032c1.846,0.005,3.691,0.001,5.666,0.001C88.432,526.038,90.416,521.103,92.487,515.953z"/>
<path class="st1" d="M45.622,515.948c2.568,6.227,5.056,12.26,7.579,18.377c-1.446,2.096-3.361,3.757-5.451,5.223
	c-0.357,0.251-0.882,0.37-1.329,0.37c-12.642,0.013-25.284,0.002-37.927-0.008c-0.042,0-0.085-0.059-0.249-0.18
	c0.4-0.399,0.785-0.801,1.187-1.184c2.328-2.218,4.691-4.399,6.97-6.666c0.702-0.698,1.412-0.924,2.362-0.918
	c5.486,0.034,10.973,0.017,16.459,0.017c0.476,0,0.951,0,1.721,0c-1.248-3.401-2.802-6.507-4.174-9.685
	c-1.363-3.158-2.762-6.3-4.156-9.476c1.162-1.801,2.769-3.12,4.446-4.35c0.395-0.29,0.977-0.454,1.473-0.455
	c9.84-0.025,19.679-0.017,29.519-0.011c0.156,0,0.312,0.07,0.725,0.168c-1.273,1.211-2.404,2.302-3.552,3.375
	c-1.608,1.504-3.231,2.991-4.84,4.493c-0.728,0.68-1.54,0.963-2.57,0.935C51.153,515.9,48.487,515.948,45.622,515.948z"/>
<path class="st1" d="M395.228,515.948c2.821,6.235,5.557,12.282,8.363,18.484c-1.13,1.186-2.256,2.396-3.412,3.574
	c-1.443,1.47-3.128,2.009-5.262,1.981c-9.295-0.122-18.593-0.053-27.89-0.053c-0.573,0-1.146,0-1.992,0
	c1.315-1.337,2.388-2.482,3.52-3.566c1.632-1.562,3.341-3.045,4.944-4.635c0.614-0.609,1.242-0.777,2.059-0.769
	c3.218,0.034,6.436,0.014,9.654,0.014c0.35,0,0.7,0,1.34,0c-1.465-3.427-3.188-6.518-4.735-9.689
	c-1.537-3.149-3.126-6.273-4.708-9.441c1.231-1.907,2.934-3.286,4.734-4.551c0.308-0.216,0.772-0.292,1.165-0.292
	c10.548-0.014,21.097-0.01,31.645-0.003c0.101,0,0.202,0.085,0.463,0.201c-2.373,2.207-4.696,4.37-7.022,6.53
	c-0.13,0.121-0.328,0.189-0.418,0.33c-1.19,1.884-2.993,2.007-4.983,1.912C400.273,515.86,397.843,515.948,395.228,515.948z"/>
<path class="st1" d="M151.163,507.123c-3.084,2.865-6.008,5.542-8.876,8.28c-0.559,0.533-1.137,0.545-1.787,0.545
	c-5.187,0-10.374,0-15.56,0c-0.474,0-0.949,0-1.576,0c-1.999,4.932-3.995,9.854-6.078,14.994c7.084,0,13.903,0,21.137,0
	c-0.599,0.565-0.909,0.861-1.222,1.152c-2.526,2.351-5.065,4.688-7.57,7.06c-0.546,0.517-1.074,0.801-1.865,0.798
	c-7.631-0.031-15.262-0.037-22.893,0.003c-1.016,0.005-1.495-0.356-1.807-1.29c-0.617-1.848-0.814-3.577,0.008-5.495
	c2.199-5.133,4.214-10.345,6.301-15.526c0.133-0.329,0.256-0.662,0.42-1.087c-0.462-0.437-0.928-0.877-1.506-1.423
	c0.147-0.239,0.268-0.573,0.499-0.788c2.39-2.232,4.77-4.478,7.226-6.636c0.481-0.423,1.275-0.686,1.925-0.688
	c10.85-0.04,21.701-0.028,32.551-0.024C150.604,506.998,150.721,507.039,151.163,507.123z"/>
<path class="st1" d="M356.084,521.187c1.997-4.946,3.835-9.499,5.696-14.109c4.37,0,8.695,0,13.164,0
	c-0.116,0.391-0.198,0.762-0.335,1.113c-0.864,2.207-1.759,4.402-2.602,6.617c-0.296,0.779-0.762,1.251-1.565,1.534
	c-4.133,1.457-8.245,2.972-12.374,4.442C357.537,520.973,356.952,521.015,356.084,521.187z"/>
</svg>
